<svg xmlns="http://www.w3.org/2000/svg" width="465" height="155" fill="none"><g clip-path="url(#a)"><path fill="#000" d="M-.191 32.844a4.962 4.962 0 0 1 4.961-4.961h69.462a4.962 4.962 0 0 1 4.961 4.961v84.84a4.96 4.96 0 0 1-4.961 4.962H59.347a4.96 4.96 0 0 1-4.962-4.962v-15.378a4.961 4.961 0 0 0-4.961-4.962H29.578a4.961 4.961 0 0 0-4.962 4.962v15.378a4.96 4.96 0 0 1-4.961 4.962H4.77a4.96 4.96 0 0 1-4.961-4.962v-84.84ZM18 42.767v14.885h18V42.767H18Zm0 24.808V82.46h18V67.575H18Zm24.5-24.808v14.885h16.847V42.767H42.5Zm0 24.808V82.46h16.847V67.575H42.5Z"/></g><path fill="#000" d="M146.656 97.943h-31.492L109.363 114h-9.945l26.106-71.789h10.877L162.402 114h-9.945l-5.801-16.057Zm-2.693-7.665L130.91 53.813l-13.052 36.465h26.105Zm39.222-23.826c1.658-3.246 4.006-5.767 7.045-7.563 3.107-1.795 6.871-2.693 11.291-2.693v9.738h-2.486c-10.566 0-15.85 5.732-15.85 17.196V114h-9.426V57.232h9.426v9.22Zm25.675 19.06c0-5.87 1.174-10.98 3.522-15.331 2.348-4.42 5.594-7.838 9.738-10.256 4.213-2.417 9.012-3.625 14.399-3.625 6.975 0 12.707 1.692 17.196 5.076 4.558 3.384 7.562 8.08 9.013 14.088h-10.152c-.967-3.453-2.866-6.18-5.698-8.184-2.762-2.002-6.215-3.004-10.359-3.004-5.387 0-9.738 1.865-13.052 5.594-3.315 3.66-4.973 8.874-4.973 15.642 0 6.837 1.658 12.12 4.973 15.85 3.314 3.729 7.665 5.594 13.052 5.594 4.144 0 7.597-.967 10.359-2.901 2.763-1.933 4.662-4.696 5.698-8.287h10.152c-1.52 5.801-4.558 10.463-9.116 13.985-4.558 3.453-10.256 5.179-17.093 5.179-5.387 0-10.186-1.208-14.399-3.625-4.144-2.418-7.39-5.836-9.738-10.256s-3.522-9.6-3.522-15.539Zm94.602-29.316c4.282 0 8.149.932 11.602 2.797 3.453 1.796 6.147 4.523 8.08 8.184 2.003 3.66 3.005 8.114 3.005 13.363V114h-9.324V81.887c0-5.663-1.415-9.98-4.247-12.95-2.831-3.038-6.699-4.557-11.602-4.557-4.973 0-8.944 1.554-11.913 4.661-2.901 3.108-4.351 7.632-4.351 13.57V114h-9.427V37.342h9.427v27.97c1.865-2.9 4.42-5.145 7.666-6.733 3.315-1.589 7.009-2.383 11.084-2.383Zm89.86 27.245c0 1.795-.103 3.694-.311 5.697h-45.373c.346 5.594 2.245 9.98 5.698 13.156 3.522 3.108 7.769 4.662 12.742 4.662 4.074 0 7.458-.933 10.152-2.797 2.762-1.934 4.696-4.49 5.801-7.666h10.152c-1.52 5.456-4.558 9.91-9.116 13.363-4.558 3.384-10.221 5.076-16.989 5.076-5.387 0-10.221-1.208-14.503-3.625-4.213-2.418-7.528-5.836-9.945-10.256-2.417-4.489-3.626-9.668-3.626-15.539 0-5.87 1.174-11.015 3.522-15.435 2.349-4.42 5.629-7.804 9.842-10.152 4.281-2.417 9.185-3.625 14.71-3.625 5.386 0 10.152 1.174 14.295 3.522 4.144 2.348 7.321 5.594 9.531 9.737 2.279 4.075 3.418 8.702 3.418 13.882Zm-9.737-1.969c0-3.59-.795-6.664-2.383-9.22-1.588-2.624-3.764-4.592-6.526-5.904-2.694-1.381-5.698-2.072-9.013-2.072-4.765 0-8.84 1.52-12.224 4.558-3.314 3.039-5.214 7.252-5.697 12.638h35.843Zm46.918 33.46c-5.318 0-10.152-1.208-14.503-3.625-4.282-2.418-7.666-5.836-10.152-10.256-2.417-4.489-3.626-9.668-3.626-15.539 0-5.8 1.243-10.911 3.73-15.331 2.555-4.49 6.008-7.908 10.359-10.256 4.351-2.417 9.219-3.625 14.606-3.625 5.387 0 10.256 1.208 14.607 3.625 4.35 2.348 7.769 5.732 10.255 10.152 2.555 4.42 3.833 9.565 3.833 15.435 0 5.87-1.312 11.05-3.936 15.539-2.556 4.42-6.043 7.838-10.463 10.256-4.42 2.417-9.323 3.625-14.71 3.625Zm0-8.287c3.384 0 6.561-.794 9.53-2.383 2.97-1.588 5.352-3.971 7.148-7.147 1.865-3.177 2.797-7.045 2.797-11.603s-.898-8.425-2.693-11.602c-1.796-3.177-4.144-5.525-7.045-7.044-2.9-1.588-6.042-2.383-9.426-2.383-3.453 0-6.63.794-9.531 2.383-2.831 1.52-5.11 3.867-6.837 7.044-1.726 3.177-2.59 7.044-2.59 11.602 0 4.627.829 8.53 2.487 11.706 1.726 3.177 4.005 5.56 6.837 7.148 2.831 1.519 5.939 2.279 9.323 2.279Z"/><defs><clipPath id="a"><path fill="#fff" d="M0 13h104v129H0z"/></clipPath></defs></svg>