<?xml version="1.0" encoding="UTF-8"?>
<svg id="Capa_2" data-name="Capa 2" xmlns="http://www.w3.org/2000/svg" viewBox="0 0 396.79 433.06">
  <g id="Capa_1-2" data-name="Capa 1">
    <path d="M197.78,433.06L43.6,51.02C33.49,25.92,18.96,12.96,0,12.15V0c16.84,1.21,29.87,1.82,58.1,1.82,36.22,0,63.19-.61,80.88-1.82v12.15c-16.01.82-27.49,2.73-34.44,5.77-6.95,3.04-10.43,8.61-10.43,16.7,0,6.89,2.53,16.4,7.58,28.55l114.37,292.15,103-256.92c8.42-21.87,12.64-38.46,12.64-49.8,0-12.55-4.53-21.66-13.58-27.33-9.07-5.67-22.86-8.7-41.39-9.11V0c24.01,1.21,48.23,1.82,72.67,1.82,18.95,0,34.75-.61,47.39-1.82v12.15c-21.07,4.86-37.71,22.47-49.92,52.84l-148.49,368.07"/>
  </g>
</svg>