<?xml version="1.0" encoding="UTF-8"?>
<svg id="Capa_2" data-name="Capa 2" xmlns="http://www.w3.org/2000/svg" viewBox="0 0 1351.24 500.8">
  <g id="Capa_1-2" data-name="Capa 1">
    <g>
      <g>
        <path d="M151.63,337.12L33.43,44.24C25.67,24.99,14.53,15.06,0,14.43V5.12c12.91.93,22.9,1.4,44.54,1.4,27.77,0,48.44-.47,62.01-1.4v9.31c-12.28.63-21.07,2.1-26.4,4.42-5.33,2.33-7.99,6.6-7.99,12.8,0,5.28,1.94,12.57,5.81,21.88l87.68,223.97,78.96-196.97c6.46-16.76,9.69-29.49,9.69-38.18,0-9.62-3.47-16.6-10.41-20.95-6.95-4.34-17.53-6.67-31.73-6.99V5.12c18.41.93,36.98,1.4,55.71,1.4,14.53,0,26.64-.47,36.33-1.4v9.31c-16.15,3.73-28.91,17.23-38.27,40.51l-113.84,282.18"/>
        <path d="M563.94,334.79c-21.96-.93-55.74-1.4-107.73-1.4-62.01,0-97.82.46-129.47,1.4v-9.31c11.63-.62,20.1-1.86,25.43-3.73,5.33-1.86,8.96-5.43,10.9-10.71,1.94-5.28,2.91-13.81,2.91-25.61V54.48c0-11.79-.97-20.33-2.91-25.61-1.94-5.27-5.57-8.85-10.9-10.71s-13.81-3.1-25.43-3.73V5.12c31.65.93,67.46,1.4,129.47,1.4,47.47,0,78.01-.47,98.04-1.4-2.26,20.49-3.39,38.81-3.39,54.95,0,12.11.48,21.73,1.45,28.87h-7.94c-2.26-20.18-5.17-35.16-8.72-44.94-3.56-9.78-9.53-16.92-17.93-21.42-8.4-4.5-21.16-6.75-38.27-6.75h-40.21c-11.63,0-20.11.86-25.43,2.56-5.33,1.71-8.96,5.2-10.9,10.48-1.94,5.28-2.9,13.82-2.9,25.61v109.89h31.97c11.3,0,20.02-2.56,26.16-7.68,6.13-5.12,10.25-11.18,12.35-18.16,2.1-6.98,3.79-15.75,5.09-26.31l1.45-9.31h8.7c-.97,13.04-1.45,27.63-1.45,43.77v22.35c0,15.83.97,37.88,2.9,66.12h-8.7c-.33-2.17-1.3-9.7-2.91-22.58-1.62-12.88-6.06-22.58-13.32-29.1-7.26-6.52-17.36-9.78-30.28-9.78h-31.97v111.75c0,11.8.97,20.33,2.9,25.61,1.94,5.28,5.57,8.77,10.9,10.48,5.33,1.71,13.81,2.56,25.43,2.56h35.36c20.02,0,35.28-2.56,45.78-7.68,10.49-5.12,18.17-13.34,23.01-24.68,4.85-11.33,8.39-28.01,10.66-50.06h7.93c-.97,8.38-1.45,19.56-1.45,33.53,0,17.69,1.13,37.56,3.39,59.6Z"/>
        <path d="M697.76,14.43c-11.63.63-20.11,1.86-25.43,3.73-5.33,1.86-8.96,5.44-10.9,10.71-1.94,5.28-2.9,13.82-2.9,25.61v230.96c0,11.8.97,20.33,2.9,25.61,1.94,5.28,5.57,8.77,10.9,10.48,5.33,1.71,13.81,2.56,25.43,2.56h35.36c20.02,0,35.28-2.71,45.78-8.15,10.49-5.43,18.17-14.2,23.01-26.31,4.85-12.11,8.39-29.64,10.66-52.62h7.81c-.97,9.63-1.45,22.35-1.45,38.18,0,17.69,1.13,37.56,3.39,59.6-21.96-.93-55.61-1.4-107.6-1.4-62.01,0-96.57.46-128.21,1.4v-9.31c11.63-.62,20.1-1.86,25.43-3.73,5.33-1.86,8.96-5.43,10.9-10.71,1.94-5.28,2.91-13.81,2.91-25.61V54.48c0-11.79-.97-20.33-2.91-25.61-1.94-5.27-5.57-8.85-10.9-10.71s-13.81-3.1-25.43-3.73V5.12c13.56.93,21.96,1.4,49.74,1.4,25.83,0,46.34-.47,61.53-1.4v9.31Z"/>
        <path d="M1138.79,14.43c-11.31.63-19.7,2.26-25.19,4.89-5.5,2.64-9.21,6.99-11.14,13.04-1.94,6.05-2.9,14.98-2.9,26.77v140.16c0,22.35-1.54,41.52-4.6,57.51-3.07,15.99-8.16,29.73-15.26,41.21-8.08,13.35-19.95,23.91-35.61,31.66-15.67,7.75-33.35,11.64-53.05,11.64-35.53,0-52.36-8.38-71.09-25.15-14.21-12.72-23.74-27.16-28.58-43.3-4.85-16.14-7.27-40.2-7.27-72.17V54.48c0-11.79-.97-20.33-2.9-25.61-1.94-5.27-5.57-8.85-10.9-10.71-5.33-1.86-13.81-3.1-25.43-3.73V5.12c13.56.93,23.93,1.4,51.71,1.4,26.16,0,46.66-.47,61.52-1.4v9.31c-11.63.63-20.1,1.86-25.43,3.73s-8.96,5.44-10.9,10.71c-1.94,5.28-2.91,13.82-2.91,25.61v154.13c0,24.84,1.77,45.48,5.33,61.93,3.55,16.46,10.9,29.65,22.04,39.58,11.14,9.94,27.53,14.9,49.17,14.9,34.23,0,58.29-10.55,72.18-31.66,13.88-21.11,20.83-50.75,20.83-88.94V59.14c0-16.76-3.15-28.24-9.45-34.46-6.3-6.21-17.85-9.62-34.63-10.24V5.12c11.63.93,28.1,1.4,49.41,1.4,19.38,0,34.39-.47,45.05-1.4v9.31Z"/>
        <path d="M1281.54,4.42c8.23,2.95,16.71,7.22,25.43,12.8,7.1,4.35,12.59,6.52,16.47,6.52,2.9,0,5.16.23,6.78-3.03,1.61-3.26,2.91-6.28,3.88-13.42h8.4c-1.62,18.01-2.42,45.63-2.42,90.95h-8.4c-1.94-25.15-9.45-46.33-22.52-63.56-13.08-17.23-39.03-25.84-63.9-25.84-17.44,0-35.14,8.4-46.12,18.49-10.98,10.09-16.47,23.05-16.47,38.88,0,11.8,2.82,22.05,8.48,30.73,5.65,8.69,12.84,16.14,21.56,22.35,8.72,6.21,21.15,14.13,37.3,23.75l14.05,8.38c20.34,12.11,36.41,22.74,48.2,31.9,11.78,9.16,21.23,19.64,28.34,31.43,7.1,11.8,10.66,22.26,10.66,38.09,0,28.25-9.69,50.05-29.06,65.42-19.38,15.37-33.46,23.05-63.17,23.05-15.5,0-28.18-1.56-38.03-4.66-9.86-3.1-19.3-7.29-28.34-12.57-7.11-4.34-12.6-6.52-16.47-6.52-2.9,0-5.17,1.63-6.78,4.89-1.62,3.26-2.91,6.24-3.88,13.37h-8.46c1.29-17.07,1.94-52.09,1.94-109.53h8.46c2.25,31.36,10.33,56.81,24.22,76.36,13.88,19.56,35.2,29.34,63.95,29.34,17.44,0,32.29-5.2,44.57-15.6,12.27-10.4,18.41-25.84,18.41-46.33,0-17.38-6.06-32.13-18.17-44.24-12.11-12.11-31.25-25.76-57.4-40.98-19.06-11.18-34.48-21.11-46.26-29.8-11.79-8.69-21.4-19.16-28.82-31.43-7.43-12.26-11.14-26.61-11.14-43.07,0-26.08,8.72-46.02,26.16-59.83,17.44-13.81,39.07-20.72,64.91-20.72,14.2,0,25.43,1.48,33.67,4.42Z"/>
      </g>
      <g>
        <path d="M357.95,422.22v77.48h-5.98v-77.48h5.98Z"/>
        <path d="M402.89,499.7v-77.48h8.86c12.06,18.59,40.4,61.87,45.27,70.28h.11c-.66-11.18-.55-22.58-.55-35.2v-35.09h6.09v77.48h-8.19c-11.51-17.93-40.29-62.98-45.82-71.5h-.11c.55,10.18.44,21.47.44,35.53v35.97h-6.09Z"/>
        <path d="M523.1,427.75h-26.01v-5.53h58.22v5.53h-26.12v71.94h-6.09v-71.94Z"/>
        <path d="M634.45,461.62h-39.51v32.54h43.28l-.89,5.53h-48.37v-77.48h47.48v5.53h-41.5v28.33h39.51v5.53Z"/>
        <path d="M681.72,463.5v36.19h-6.09v-77.48h27.78c15.27,0,23.35,8.19,23.35,20.37,0,9.85-5.87,16.27-14.5,18.15,7.97,1.88,13.28,7.08,13.28,20.26v2.99c0,5.42-.44,12.73,1,15.72h-6.09c-1.44-3.32-1.11-9.52-1.11-16.16v-1.99c0-12.73-3.76-18.04-18.59-18.04h-19.04ZM681.72,457.97h18.7c13.61,0,19.92-5.09,19.92-15.27,0-9.52-6.2-14.94-18.26-14.94h-20.37v30.22Z"/>
        <path d="M773.81,422.22v77.48h-5.98v-77.48h5.98Z"/>
        <path d="M882.72,460.41c0,21.14-11.29,40.4-35.2,40.4-21.81,0-34.53-17.6-34.53-39.85s12.29-39.85,35.31-39.85c21.25,0,34.42,16.71,34.42,39.29ZM819.41,460.63c0,17.82,9.85,34.64,28.45,34.64,20.03,0,28.45-16.38,28.45-34.75s-9.52-33.87-28.22-33.87c-19.92,0-28.67,16.49-28.67,33.98Z"/>
        <path d="M928,463.5v36.19h-6.09v-77.48h27.78c15.27,0,23.35,8.19,23.35,20.37,0,9.85-5.87,16.27-14.5,18.15,7.97,1.88,13.28,7.08,13.28,20.26v2.99c0,5.42-.44,12.73,1,15.72h-6.09c-1.44-3.32-1.11-9.52-1.11-16.16v-1.99c0-12.73-3.76-18.04-18.59-18.04h-19.04ZM928,457.97h18.7c13.61,0,19.92-5.09,19.92-15.27,0-9.52-6.2-14.94-18.26-14.94h-20.37v30.22Z"/>
        <path d="M1014.11,478.89c2.32,10.29,9.19,16.38,21.91,16.38,14.17,0,19.59-7.08,19.59-15.5s-3.87-14.17-20.92-18.37c-16.38-4.1-23.47-9.41-23.47-20.59,0-10.18,7.42-19.7,24.02-19.7s24.24,10.4,25.24,19.81h-6.2c-1.77-8.3-7.19-14.28-19.37-14.28-11.18,0-17.27,5.2-17.27,13.84s5.09,11.84,19.37,15.39c21.8,5.42,25.01,14.17,25.01,23.46,0,11.4-8.3,21.25-26.23,21.25-19.37,0-26.45-11.29-27.89-21.69h6.2Z"/>
      </g>
    </g>
  </g>
</svg>