<?xml version="1.0" encoding="UTF-8" standalone="no"?>
<!-- Created with Inkscape (http://www.inkscape.org/) -->

<svg
   version="1.1"
   id="svg2"
   width="1200"
   height="733.33331"
   viewBox="0 0 1200 733.33331"
   sodipodi:docname="3 LANE ROPE.svg"
   inkscape:version="1.2.1 (9c6d41e410, 2022-07-14)"
   xmlns:inkscape="http://www.inkscape.org/namespaces/inkscape"
   xmlns:sodipodi="http://sodipodi.sourceforge.net/DTD/sodipodi-0.dtd"
   xmlns="http://www.w3.org/2000/svg"
   xmlns:svg="http://www.w3.org/2000/svg">
  <defs
     id="defs6">
    <clipPath
       clipPathUnits="userSpaceOnUse"
       id="clipPath1178">
      <g
         id="g1182">
        <path
           d="M -295.93426,730.84871 H 1195.9343 V -180.84873 H -295.93426 Z"
           id="path1180"
           style="stroke-width:1.65763" />
      </g>
    </clipPath>
    <clipPath
       clipPathUnits="userSpaceOnUse"
       id="clipPath1203">
      <g
         id="g1209">
        <g
           id="g1207">
          <path
             d="M -295.93426,730.84871 H 1195.9343 V -180.84873 H -295.93426 Z"
             id="path1205"
             style="stroke-width:1.65763" />
        </g>
      </g>
    </clipPath>
    <clipPath
       clipPathUnits="userSpaceOnUse"
       id="clipPath1218">
      <g
         id="g1224">
        <g
           id="g1222">
          <path
             d="M -295.93426,730.84871 H 1195.9343 V -180.84873 H -295.93426 Z"
             id="path1220"
             style="stroke-width:1.65763" />
        </g>
      </g>
    </clipPath>
    <clipPath
       clipPathUnits="userSpaceOnUse"
       id="clipPath1233">
      <g
         id="g1239">
        <g
           id="g1237">
          <path
             d="M -295.93426,730.84871 H 1195.9343 V -180.84873 H -295.93426 Z"
             id="path1235"
             style="stroke-width:1.65763" />
        </g>
      </g>
    </clipPath>
    <clipPath
       clipPathUnits="userSpaceOnUse"
       id="clipPath1248">
      <g
         id="g1254">
        <g
           id="g1252">
          <path
             d="M -295.93426,730.84871 H 1195.9343 V -180.84873 H -295.93426 Z"
             id="path1250"
             style="stroke-width:1.65763" />
        </g>
      </g>
    </clipPath>
    <clipPath
       clipPathUnits="userSpaceOnUse"
       id="clipPath1263">
      <g
         id="g1269">
        <g
           id="g1267">
          <path
             d="M -295.93426,730.84871 H 1195.9343 V -180.84873 H -295.93426 Z"
             id="path1265"
             style="stroke-width:1.65763" />
        </g>
      </g>
    </clipPath>
    <clipPath
       clipPathUnits="userSpaceOnUse"
       id="clipPath1278">
      <g
         id="g1284">
        <g
           id="g1282">
          <path
             d="M -295.93426,730.84871 H 1195.9343 V -180.84873 H -295.93426 Z"
             id="path1280"
             style="stroke-width:1.65763" />
        </g>
      </g>
    </clipPath>
    <clipPath
       clipPathUnits="userSpaceOnUse"
       id="clipPath1293">
      <g
         id="g1299">
        <g
           id="g1297">
          <path
             d="M -295.93426,730.84871 H 1195.9343 V -180.84873 H -295.93426 Z"
             id="path1295"
             style="stroke-width:1.65763" />
        </g>
      </g>
    </clipPath>
    <clipPath
       clipPathUnits="userSpaceOnUse"
       id="clipPath1308">
      <g
         id="g1314">
        <g
           id="g1312">
          <path
             d="M -295.93426,730.84871 H 1195.9343 V -180.84873 H -295.93426 Z"
             id="path1310"
             style="stroke-width:1.65763" />
        </g>
      </g>
    </clipPath>
    <clipPath
       clipPathUnits="userSpaceOnUse"
       id="clipPath1323">
      <g
         id="g1329">
        <g
           id="g1327">
          <path
             d="M -295.93426,730.84871 H 1195.9343 V -180.84873 H -295.93426 Z"
             id="path1325"
             style="stroke-width:1.65763" />
        </g>
      </g>
    </clipPath>
    <clipPath
       clipPathUnits="userSpaceOnUse"
       id="clipPath1338">
      <g
         id="g1344">
        <g
           id="g1342">
          <path
             d="M -295.93426,730.84871 H 1195.9343 V -180.84873 H -295.93426 Z"
             id="path1340"
             style="stroke-width:1.65763" />
        </g>
      </g>
    </clipPath>
    <clipPath
       clipPathUnits="userSpaceOnUse"
       id="clipPath1353">
      <g
         id="g1359">
        <g
           id="g1357">
          <path
             d="M -295.93426,730.84871 H 1195.9343 V -180.84873 H -295.93426 Z"
             id="path1355"
             style="stroke-width:1.65763" />
        </g>
      </g>
    </clipPath>
    <clipPath
       clipPathUnits="userSpaceOnUse"
       id="clipPath1368">
      <g
         id="g1374">
        <g
           id="g1372">
          <path
             d="M -295.93426,730.84871 H 1195.9343 V -180.84873 H -295.93426 Z"
             id="path1370"
             style="stroke-width:1.65763" />
        </g>
      </g>
    </clipPath>
    <clipPath
       clipPathUnits="userSpaceOnUse"
       id="clipPath1383">
      <g
         id="g1389">
        <g
           id="g1387">
          <path
             d="M -295.93426,730.84871 H 1195.9343 V -180.84873 H -295.93426 Z"
             id="path1385"
             style="stroke-width:1.65763" />
        </g>
      </g>
    </clipPath>
    <clipPath
       clipPathUnits="userSpaceOnUse"
       id="clipPath1398">
      <g
         id="g1404">
        <g
           id="g1402">
          <path
             d="M -295.93426,730.84871 H 1195.9343 V -180.84873 H -295.93426 Z"
             id="path1400"
             style="stroke-width:1.65763" />
        </g>
      </g>
    </clipPath>
    <clipPath
       clipPathUnits="userSpaceOnUse"
       id="clipPath1413">
      <g
         id="g1419">
        <g
           id="g1417">
          <path
             d="M -295.93426,730.84871 H 1195.9343 V -180.84873 H -295.93426 Z"
             id="path1415"
             style="stroke-width:1.65763" />
        </g>
      </g>
    </clipPath>
    <clipPath
       clipPathUnits="userSpaceOnUse"
       id="clipPath1428">
      <g
         id="g1434">
        <g
           id="g1432">
          <path
             d="M -295.93426,730.84871 H 1195.9343 V -180.84873 H -295.93426 Z"
             id="path1430"
             style="stroke-width:1.65763" />
        </g>
      </g>
    </clipPath>
    <clipPath
       clipPathUnits="userSpaceOnUse"
       id="clipPath1443">
      <g
         id="g1449">
        <g
           id="g1447">
          <path
             d="M -295.93426,730.84871 H 1195.9343 V -180.84873 H -295.93426 Z"
             id="path1445"
             style="stroke-width:1.65763" />
        </g>
      </g>
    </clipPath>
    <clipPath
       clipPathUnits="userSpaceOnUse"
       id="clipPath1458">
      <g
         id="g1464">
        <g
           id="g1462">
          <path
             d="M -295.93426,730.84871 H 1195.9343 V -180.84873 H -295.93426 Z"
             id="path1460"
             style="stroke-width:1.65763" />
        </g>
      </g>
    </clipPath>
    <clipPath
       clipPathUnits="userSpaceOnUse"
       id="clipPath1473">
      <g
         id="g1479">
        <g
           id="g1477">
          <path
             d="M -295.93426,730.84871 H 1195.9343 V -180.84873 H -295.93426 Z"
             id="path1475"
             style="stroke-width:1.65763" />
        </g>
      </g>
    </clipPath>
    <clipPath
       clipPathUnits="userSpaceOnUse"
       id="clipPath1488">
      <g
         id="g1494">
        <g
           id="g1492">
          <path
             d="M -295.93426,730.84871 H 1195.9343 V -180.84873 H -295.93426 Z"
             id="path1490"
             style="stroke-width:1.65763" />
        </g>
      </g>
    </clipPath>
    <clipPath
       clipPathUnits="userSpaceOnUse"
       id="clipPath1503">
      <g
         id="g1509">
        <g
           id="g1507">
          <path
             d="M -295.93426,730.84871 H 1195.9343 V -180.84873 H -295.93426 Z"
             id="path1505"
             style="stroke-width:1.65763" />
        </g>
      </g>
    </clipPath>
    <clipPath
       clipPathUnits="userSpaceOnUse"
       id="clipPath1518">
      <g
         id="g1524">
        <g
           id="g1522">
          <path
             d="M -295.93426,730.84871 H 1195.9343 V -180.84873 H -295.93426 Z"
             id="path1520"
             style="stroke-width:1.65763" />
        </g>
      </g>
    </clipPath>
    <clipPath
       clipPathUnits="userSpaceOnUse"
       id="clipPath1533">
      <g
         id="g1539">
        <g
           id="g1537">
          <path
             d="M -295.93426,730.84871 H 1195.9343 V -180.84873 H -295.93426 Z"
             id="path1535"
             style="stroke-width:1.65763" />
        </g>
      </g>
    </clipPath>
    <clipPath
       clipPathUnits="userSpaceOnUse"
       id="clipPath1548">
      <g
         id="g1554">
        <g
           id="g1552">
          <path
             d="M -295.93426,730.84871 H 1195.9343 V -180.84873 H -295.93426 Z"
             id="path1550"
             style="stroke-width:1.65763" />
        </g>
      </g>
    </clipPath>
    <clipPath
       clipPathUnits="userSpaceOnUse"
       id="clipPath1563">
      <g
         id="g1569">
        <g
           id="g1567">
          <path
             d="M -295.93426,730.84871 H 1195.9343 V -180.84873 H -295.93426 Z"
             id="path1565"
             style="stroke-width:1.65763" />
        </g>
      </g>
    </clipPath>
    <clipPath
       clipPathUnits="userSpaceOnUse"
       id="clipPath1578">
      <g
         id="g1584">
        <g
           id="g1582">
          <path
             d="M -295.93426,730.84871 H 1195.9343 V -180.84873 H -295.93426 Z"
             id="path1580"
             style="stroke-width:1.65763" />
        </g>
      </g>
    </clipPath>
    <clipPath
       clipPathUnits="userSpaceOnUse"
       id="clipPath1593">
      <g
         id="g1599">
        <g
           id="g1597">
          <path
             d="M -295.93426,730.84871 H 1195.9343 V -180.84873 H -295.93426 Z"
             id="path1595"
             style="stroke-width:1.65763" />
        </g>
      </g>
    </clipPath>
    <clipPath
       clipPathUnits="userSpaceOnUse"
       id="clipPath1608">
      <g
         id="g1614">
        <g
           id="g1612">
          <path
             d="M -295.93426,730.84871 H 1195.9343 V -180.84873 H -295.93426 Z"
             id="path1610"
             style="stroke-width:1.65763" />
        </g>
      </g>
    </clipPath>
    <clipPath
       clipPathUnits="userSpaceOnUse"
       id="clipPath1623">
      <g
         id="g1629">
        <g
           id="g1627">
          <path
             d="M -295.93426,730.84871 H 1195.9343 V -180.84873 H -295.93426 Z"
             id="path1625"
             style="stroke-width:1.65763" />
        </g>
      </g>
    </clipPath>
    <clipPath
       clipPathUnits="userSpaceOnUse"
       id="clipPath1638">
      <g
         id="g1644">
        <g
           id="g1642">
          <path
             d="M -295.93426,730.84871 H 1195.9343 V -180.84873 H -295.93426 Z"
             id="path1640"
             style="stroke-width:1.65763" />
        </g>
      </g>
    </clipPath>
    <clipPath
       clipPathUnits="userSpaceOnUse"
       id="clipPath1653">
      <g
         id="g1659">
        <g
           id="g1657">
          <path
             d="M -295.93426,730.84871 H 1195.9343 V -180.84873 H -295.93426 Z"
             id="path1655"
             style="stroke-width:1.65763" />
        </g>
      </g>
    </clipPath>
    <clipPath
       clipPathUnits="userSpaceOnUse"
       id="clipPath1668">
      <g
         id="g1674">
        <g
           id="g1672">
          <path
             d="M -295.93426,730.84871 H 1195.9343 V -180.84873 H -295.93426 Z"
             id="path1670"
             style="stroke-width:1.65763" />
        </g>
      </g>
    </clipPath>
    <clipPath
       clipPathUnits="userSpaceOnUse"
       id="clipPath1683">
      <g
         id="g1689">
        <g
           id="g1687">
          <path
             d="M -295.93426,730.84871 H 1195.9343 V -180.84873 H -295.93426 Z"
             id="path1685"
             style="stroke-width:1.65763" />
        </g>
      </g>
    </clipPath>
    <clipPath
       clipPathUnits="userSpaceOnUse"
       id="clipPath1698">
      <g
         id="g1704">
        <g
           id="g1702">
          <path
             d="M -295.93426,730.84871 H 1195.9343 V -180.84873 H -295.93426 Z"
             id="path1700"
             style="stroke-width:1.65763" />
        </g>
      </g>
    </clipPath>
    <clipPath
       clipPathUnits="userSpaceOnUse"
       id="clipPath1713">
      <g
         id="g1719">
        <g
           id="g1717">
          <path
             d="M -295.93426,730.84871 H 1195.9343 V -180.84873 H -295.93426 Z"
             id="path1715"
             style="stroke-width:1.65763" />
        </g>
      </g>
    </clipPath>
    <clipPath
       clipPathUnits="userSpaceOnUse"
       id="clipPath1728">
      <g
         id="g1734">
        <g
           id="g1732">
          <path
             d="M -295.93426,730.84871 H 1195.9343 V -180.84873 H -295.93426 Z"
             id="path1730"
             style="stroke-width:1.65763" />
        </g>
      </g>
    </clipPath>
    <clipPath
       clipPathUnits="userSpaceOnUse"
       id="clipPath1743">
      <g
         id="g1749">
        <g
           id="g1747">
          <path
             d="M -295.93426,730.84871 H 1195.9343 V -180.84873 H -295.93426 Z"
             id="path1745"
             style="stroke-width:1.65763" />
        </g>
      </g>
    </clipPath>
    <clipPath
       clipPathUnits="userSpaceOnUse"
       id="clipPath1758">
      <g
         id="g1764">
        <g
           id="g1762">
          <path
             d="M -295.93426,730.84871 H 1195.9343 V -180.84873 H -295.93426 Z"
             id="path1760"
             style="stroke-width:1.65763" />
        </g>
      </g>
    </clipPath>
    <clipPath
       clipPathUnits="userSpaceOnUse"
       id="clipPath1773">
      <g
         id="g1779">
        <g
           id="g1777">
          <path
             d="M -295.93426,730.84871 H 1195.9343 V -180.84873 H -295.93426 Z"
             id="path1775"
             style="stroke-width:1.65763" />
        </g>
      </g>
    </clipPath>
    <clipPath
       clipPathUnits="userSpaceOnUse"
       id="clipPath1788">
      <g
         id="g1794">
        <g
           id="g1792">
          <path
             d="M -295.93426,730.84871 H 1195.9343 V -180.84873 H -295.93426 Z"
             id="path1790"
             style="stroke-width:1.65763" />
        </g>
      </g>
    </clipPath>
    <clipPath
       clipPathUnits="userSpaceOnUse"
       id="clipPath1803">
      <g
         id="g1809">
        <g
           id="g1807">
          <path
             d="M -295.93426,730.84871 H 1195.9343 V -180.84873 H -295.93426 Z"
             id="path1805"
             style="stroke-width:1.65763" />
        </g>
      </g>
    </clipPath>
    <clipPath
       clipPathUnits="userSpaceOnUse"
       id="clipPath1818">
      <g
         id="g1824">
        <g
           id="g1822">
          <path
             d="M -295.93426,730.84871 H 1195.9343 V -180.84873 H -295.93426 Z"
             id="path1820"
             style="stroke-width:1.65763" />
        </g>
      </g>
    </clipPath>
    <clipPath
       clipPathUnits="userSpaceOnUse"
       id="clipPath1833">
      <g
         id="g1839">
        <g
           id="g1837">
          <path
             d="M -295.93426,730.84871 H 1195.9343 V -180.84873 H -295.93426 Z"
             id="path1835"
             style="stroke-width:1.65763" />
        </g>
      </g>
    </clipPath>
    <clipPath
       clipPathUnits="userSpaceOnUse"
       id="clipPath1848">
      <g
         id="g1854">
        <g
           id="g1852">
          <path
             d="M -295.93426,730.84871 H 1195.9343 V -180.84873 H -295.93426 Z"
             id="path1850"
             style="stroke-width:1.65763" />
        </g>
      </g>
    </clipPath>
    <clipPath
       clipPathUnits="userSpaceOnUse"
       id="clipPath1863">
      <g
         id="g1869">
        <g
           id="g1867">
          <path
             d="M -295.93426,730.84871 H 1195.9343 V -180.84873 H -295.93426 Z"
             id="path1865"
             style="stroke-width:1.65763" />
        </g>
      </g>
    </clipPath>
    <clipPath
       clipPathUnits="userSpaceOnUse"
       id="clipPath1878">
      <g
         id="g1884">
        <g
           id="g1882">
          <path
             d="M -295.93426,730.84871 H 1195.9343 V -180.84873 H -295.93426 Z"
             id="path1880"
             style="stroke-width:1.65763" />
        </g>
      </g>
    </clipPath>
    <clipPath
       clipPathUnits="userSpaceOnUse"
       id="clipPath1893">
      <g
         id="g1899">
        <g
           id="g1897">
          <path
             d="M -295.93426,730.84871 H 1195.9343 V -180.84873 H -295.93426 Z"
             id="path1895"
             style="stroke-width:1.65763" />
        </g>
      </g>
    </clipPath>
    <clipPath
       clipPathUnits="userSpaceOnUse"
       id="clipPath1908">
      <g
         id="g1914">
        <g
           id="g1912">
          <path
             d="M -295.93426,730.84871 H 1195.9343 V -180.84873 H -295.93426 Z"
             id="path1910"
             style="stroke-width:1.65763" />
        </g>
      </g>
    </clipPath>
    <clipPath
       clipPathUnits="userSpaceOnUse"
       id="clipPath1923">
      <g
         id="g1929">
        <g
           id="g1927">
          <path
             d="M -295.93426,730.84871 H 1195.9343 V -180.84873 H -295.93426 Z"
             id="path1925"
             style="stroke-width:1.65763" />
        </g>
      </g>
    </clipPath>
    <clipPath
       clipPathUnits="userSpaceOnUse"
       id="clipPath1938">
      <g
         id="g1944">
        <g
           id="g1942">
          <path
             d="M -295.93426,730.84871 H 1195.9343 V -180.84873 H -295.93426 Z"
             id="path1940"
             style="stroke-width:1.65763" />
        </g>
      </g>
    </clipPath>
    <clipPath
       clipPathUnits="userSpaceOnUse"
       id="clipPath1953">
      <g
         id="g1959">
        <g
           id="g1957">
          <path
             d="M -295.93426,730.84871 H 1195.9343 V -180.84873 H -295.93426 Z"
             id="path1955"
             style="stroke-width:1.65763" />
        </g>
      </g>
    </clipPath>
    <clipPath
       clipPathUnits="userSpaceOnUse"
       id="clipPath1968">
      <g
         id="g1974">
        <g
           id="g1972">
          <path
             d="M -295.93426,730.84871 H 1195.9343 V -180.84873 H -295.93426 Z"
             id="path1970"
             style="stroke-width:1.65763" />
        </g>
      </g>
    </clipPath>
    <clipPath
       clipPathUnits="userSpaceOnUse"
       id="clipPath1983">
      <g
         id="g1989">
        <g
           id="g1987">
          <path
             d="M -295.93426,730.84871 H 1195.9343 V -180.84873 H -295.93426 Z"
             id="path1985"
             style="stroke-width:1.65763" />
        </g>
      </g>
    </clipPath>
    <clipPath
       clipPathUnits="userSpaceOnUse"
       id="clipPath1998">
      <g
         id="g2004">
        <g
           id="g2002">
          <path
             d="M -295.93426,730.84871 H 1195.9343 V -180.84873 H -295.93426 Z"
             id="path2000"
             style="stroke-width:1.65763" />
        </g>
      </g>
    </clipPath>
    <clipPath
       clipPathUnits="userSpaceOnUse"
       id="clipPath2013">
      <g
         id="g2019">
        <g
           id="g2017">
          <path
             d="M -295.93426,730.84871 H 1195.9343 V -180.84873 H -295.93426 Z"
             id="path2015"
             style="stroke-width:1.65763" />
        </g>
      </g>
    </clipPath>
    <clipPath
       clipPathUnits="userSpaceOnUse"
       id="clipPath2028">
      <g
         id="g2034">
        <g
           id="g2032">
          <path
             d="M -295.93426,730.84871 H 1195.9343 V -180.84873 H -295.93426 Z"
             id="path2030"
             style="stroke-width:1.65763" />
        </g>
      </g>
    </clipPath>
    <clipPath
       clipPathUnits="userSpaceOnUse"
       id="clipPath2043">
      <g
         id="g2049">
        <g
           id="g2047">
          <path
             d="M -295.93426,730.84871 H 1195.9343 V -180.84873 H -295.93426 Z"
             id="path2045"
             style="stroke-width:1.65763" />
        </g>
      </g>
    </clipPath>
    <clipPath
       clipPathUnits="userSpaceOnUse"
       id="clipPath2058">
      <path
         d="m 812.12687,374.41264 c 6.66533,0 13.02075,0.55199 15.1077,0.55199 10.79948,0 27.94103,2.55773 36.77453,-4.95466 3.66172,-3.12464 5.30445,-11.68796 11.12272,-11.64818 -0.43927,11.17078 -3.72472,19.63299 -15.59332,22.08297 -15.43425,3.45782 -31.9194,2.57265 -47.51768,0.85534 -6.05535,-0.95645 -12.39578,-0.77411 -18.22073,-2.80803 2.2362,-3.31195 10.50278,-4.07943 18.32678,-4.07943"
         style="fill:#ffffff;fill-opacity:1;fill-rule:nonzero;stroke:none;stroke-width:1.65763"
         id="path2060" />
    </clipPath>
    <clipPath
       clipPathUnits="userSpaceOnUse"
       id="clipPath2069">
      <g
         id="g2075">
        <g
           id="g2073">
          <path
             d="M -295.93426,730.84871 H 1195.9343 V -180.84873 H -295.93426 Z"
             id="path2071"
             style="stroke-width:1.65763" />
        </g>
      </g>
    </clipPath>
  </defs>
  <sodipodi:namedview
     id="namedview4"
     pagecolor="#ffffff"
     bordercolor="#000000"
     borderopacity="0.25"
     inkscape:showpageshadow="2"
     inkscape:pageopacity="0.0"
     inkscape:pagecheckerboard="0"
     inkscape:deskcolor="#d1d1d1"
     showgrid="false"
     inkscape:zoom="0.5"
     inkscape:cx="116"
     inkscape:cy="490"
     inkscape:window-width="1920"
     inkscape:window-height="1017"
     inkscape:window-x="-8"
     inkscape:window-y="-8"
     inkscape:window-maximized="1"
     inkscape:current-layer="g10">
    <inkscape:page
       x="0"
       y="0"
       id="page8"
       width="1200"
       height="733.33331" />
  </sodipodi:namedview>
  <g
     id="g10"
     inkscape:groupmode="layer"
     inkscape:label="Page 1"
     transform="matrix(1.3333333,0,0,-1.3333333,0,733.33333)">
    <g
       id="g596"
       transform="translate(90.000002,-6.0000002)">
      <path
         d="m 862.52735,333.76071 c -20.83809,-0.3796 -41.72259,-1.19515 -62.56068,-0.21549 -2.72017,0.14753 -6.13987,0.0133 -8.57658,1.467 -6.23436,3.60867 -9.72201,13.0754 -9.51978,22.42113 0,0.0796 0.0265,0.14753 0.0265,0.20223 0.18897,6.97366 2.62569,16.00941 9.2098,19.64459 3.92859,2.16155 8.42077,2.70028 12.83339,3.09812 5.28618,0.49066 10.53756,1.34102 15.83535,1.72228 12.88974,0.71443 42.84647,2.92903 51.12799,-8.24009 3.27714,-4.57175 3.99987,-10.59558 4.25514,-16.07737 0.44425,-9.72201 -0.0265,-23.73894 -12.63115,-24.0224 m -365.13978,24.3042 c -0.13592,-8.42409 -3.00528,-17.86596 -10.55745,-22.5007 -1.80351,-1.04928 -4.33637,-1.1305 -6.3968,-1.33273 -11.17576,-1.09072 -22.67475,-1.0095 -33.94498,-0.82053 -34.1207,0.673 -35.68384,0.92827 -37.78406,2.85444 -8.0362,7.46763 -5.97411,20.8845 -4.2684,30.35124 0,0.0265 0.0133,0.0398 0.0133,0.0663 1.04265,6.95874 4.63474,11.15586 11.18901,13.54617 1.80848,0.75091 3.68657,1.32113 5.57462,1.83168 0.15084,0.0332 0.30003,0.0713 0.45087,0.10775 9.94082,2.56435 20.26787,2.70028 30.46562,2.38367 9.57116,-0.2503 19.43573,-0.34478 28.77648,-2.8677 2.32897,-0.63322 4.73917,-1.17195 6.88083,-2.30245 2.59751,-1.42059 4.90991,-3.78769 6.57085,-6.23435 0.0414,-0.0713 0.0812,-0.14587 0.11935,-0.21881 0.54868,-0.8802 0.97469,-1.8234 1.36092,-2.78482 0.068,-0.18897 0.13592,-0.36302 0.20223,-0.55199 0.10775,-0.3133 0.21881,-0.61996 0.29174,-0.94485 0.002,-0.008 0.003,-0.0149 0.005,-0.0232 0.17405,-0.60338 0.31495,-1.22167 0.4575,-1.83334 0.0663,-0.32655 0.11935,-0.65477 0.17074,-0.99624 0.002,-0.007 0.002,-0.0149 0.003,-0.0215 0.4227,-2.5312 0.48735,-5.15689 0.41938,-7.70798 m -141.73751,-7.24426 c -21.69305,-3.69262 -42.98156,-8.25863 -61.70835,-9.06856 -20.1452,-0.90672 -40.19922,-2.92738 -60.5019,-2.30079 -11.48904,0.24533 -22.05644,2.53286 -33.22225,4.17557 -12.34604,1.86815 -24.79983,3.65508 -37.00663,6.36531 -11.39456,2.58425 -22.6101,6.16805 -33.92675,9.09708 0.56194,9.01089 -0.89346,18.50083 -5.76358,26.23037 l -5.33181,5.61419 c -1.52834,1.44546 -4.74249,2.04221 -12.91295,2.4649 -2.19471,0.12101 -4.83366,0.24202 -8.011341,0.36302 -18.757761,0.673 -29.933513,0.44425 -29.933513,0.44425 -42.591189,-0.87523 -44.54388,-1.25151 -47.19609,-3.75619 -10.5441955,-10.04525 -6.962053,-30.51203 -5.264639,-40.181 1.009498,-6.0056 2.382017,-9.19654 4.563461,-11.76918 4.445768,-5.49671 13.090317,-7.47758 20.838088,-8.59151 0.543703,-0.0746 1.102325,-0.14587 1.649343,-0.22709 18.920208,-2.53286 34.2964,-0.92993 43.466419,0.0265 18.098022,1.90793 28.125042,3.02186 33.003452,5.99068 4.88338,3.33516 7.60521,8.93795 9.41369,14.79934 6.05698,-2.64061 12.27973,-5.2232 18.72129,-6.59903 6.42498,-1.5184 12.95108,-2.50966 19.56005,-4.07944 8.60643,-2.08695 17.33717,-3.67994 26.02814,-5.45195 19.24676,-3.70812 52.81049,-4.8121 69.2658,-4.28332 3.21912,0.0978 1.82671,-0.40777 10.57734,0.2271 3.41804,0.21881 9.93253,0.90341 14.27553,1.0642 15.09937,0.47905 30.35289,-0.57686 45.18704,2.92738 8.75561,1.72227 17.52117,3.81421 26.24362,5.84149 7.2107,1.81179 14.44958,2.94727 21.54258,5.00936 4.38776,1.31285 8.67108,2.92738 12.96103,4.46732 0,0.002 0.002,0.002 0.003,0.002 0.32158,-7.24385 2.12674,-14.40814 7.16263,-19.21527 3.57551,-3.03015 6.36365,-2.71188 47.19609,-3.75619 5.01765,-0.13096 20.60105,0.0663 29.92025,0.44424 5.11545,0.19892 8.66278,0.32324 13.36217,0.72936 2.18642,0.2503 4.46732,0.34976 6.45979,1.34102 6.97366,3.90539 11.07961,13.71691 12.09077,23.86327 h 0.002 c 3.05502,-1.4007 6.08517,-2.96219 9.11366,-4.30818 9.49492,-4.18718 19.29649,-5.53484 29.26218,-8.38928 8.32131,-2.38367 17.00564,-4.33636 25.5557,-6.4631 18.23395,-4.02971 40.8341,-5.72215 56.68438,-6.25922 4.56014,-0.15913 8.01796,-0.23041 11.65315,-0.25859 3.95842,0 0.78074,-0.75422 19.06608,0.40446 14.1628,0.94154 28.94722,-1.27969 42.91442,0.79401 16.18512,2.38367 32.58739,6.66533 48.62332,9.69548 7.0499,1.35595 13.86774,3.99158 20.58944,6.3421 0.0265,0.0265 0.0812,0.0265 0.10774,0.0265 1.56481,-6.43824 5.16021,-13.7169 10.46298,-16.91115 1.8035,-1.10564 3.72967,-1.77864 20.34577,-2.38368 1.07912,-0.0398 2.11348,-0.0746 3.1727,-0.1094 16.39564,-0.56691 27.20008,-0.35142 36.76628,-0.13427 h 0.0663 c 24.71032,0.49729 35.79822,0.97137 37.12432,3.55562 10.52928,10.04525 6.96205,30.51203 5.26464,40.18099 l -4e-5,-3.2e-4 c -1.04928,6.0056 -2.4102,9.19654 -4.56512,11.76919 -11.35312,13.57932 -55.96993,9.99883 -65.95385,8.79208 -18.64504,-1.90628 -30.89825,-3.40975 -34.49697,-7.08306 -2.65387,-2.4102 -4.68613,-5.4934 -6.23601,-8.94127 l -3.08898,-19.14874 c 0,-0.63985 -0.0431,-1.25317 -0.0746,-1.86981 -6.46477,0.14753 -15.70109,-2.50468 -19.43076,-3.05667 -15.81547,-2.40688 -31.79172,-5.82326 -47.77295,-8.21025 -15.49222,-2.31406 -31.42538,-2.41351 -47.07674,-2.88594 -11.72443,-0.36468 -23.71905,-0.90507 -35.49155,-0.55033 -9.87783,0.2503 -19.66614,1.34765 -29.27875,3.5291 -11.76421,2.41848 -24.08207,4.51041 -36.0452,7.17091 -16.21827,3.31858 -31.43367,9.41037 -47.16957,14.04843 v 0.002 c -0.17571,1.83002 -0.44424,3.67331 -0.84871,5.47681 v 0.002 l -3.15112,8.87262 c -2.9423,6.09511 -7.54057,10.21433 -14.28547,11.30339 -3.49595,0.74262 -7.11124,0.99624 -10.63868,1.43551 -21.62787,1.83413 -34.57528,3.79164 -54.69715,2.11353 -0.88849,-0.10774 -1.77698,-0.20223 -2.69199,-0.30998 -0.29672,-0.0398 -0.59343,-0.0663 -0.90175,-0.10774 -0.0414,0 -0.0945,-0.0133 -0.13593,-0.0133 -0.25527,-0.0398 -0.49729,-0.0663 -0.75422,-0.0945 -0.40281,-0.053 -0.79401,-0.10774 -1.18355,-0.17405 h -0.0133 c -8.60477,-1.26643 -15.9978,-3.15116 -20.52148,-8.52354 l 6e-5,6e-5 c -2.79477,-2.70526 -4.50213,-9.97729 -5.25138,-15.74087 -0.0149,-0.0547 -0.0149,-0.10775 -0.0282,-0.16245 -1.15868,-0.78074 -2.28919,-1.54823 -3.40643,-2.27593 -11.10621,-5.34957 -23.71185,-9.97181 -34.29644,-13.3576 z m -237.47532,9.50686 c -0.75257,-7.14605 -3.31029,-16.39563 -10.69173,-19.25505 -8.105818,-2.72017 -16.642621,-2.89588 -25.058417,-3.79763 -3.837418,-0.41772 -7.701357,-0.69952 -11.566954,-0.84871 -7.984812,-0.29506 -16.064109,-0.12101 -23.995877,0.89015 -7.567088,0.9548 -14.084896,2.28753 -18.016799,6.66534 -1.722279,1.91125 -2.827919,4.36123 -3.674969,8.89982 -1.680839,9.47005 -3.973343,24.3589 4.914878,30.91649 1.173603,0.76251 2.541149,1.0211 3.918641,1.19847 0.121007,0.0133 0.242014,0.0265 0.363022,0.0398 17.425024,2.30079 34.936245,3.75619 52.52869,3.25891 0.729358,-0.0282 1.465347,-0.0448 2.194705,-0.0663 0.121007,-0.0149 0.228753,-0.0149 0.34976,-0.0149 0.37794,-0.0133 0.740961,-0.0398 1.117244,-0.053 h 0.06796 c 4.173916,-0.22876 8.389274,-0.73931 12.375886,-2.02231 0.0182,-0.005 0.0315,-0.0116 0.053,-0.0116 0.0796,-0.0265 0.14753,-0.053 0.22875,-0.0663 0.10775,-0.0133 0.17571,-0.0414 0.26854,-0.0812 0.0547,-0.0265 0.12266,-0.0398 0.18897,-0.068 0.10774,-0.0398 0.22875,-0.0663 0.34976,-0.10775 0.19891,-0.0845 0.41441,-0.18565 0.61664,-0.27516 0.18897,-0.0613 0.38291,-0.12764 0.56857,-0.20886 0.30997,-0.12101 0.60669,-0.25528 0.90175,-0.40447 0.48568,-0.22875 0.96971,-0.48402 1.42888,-0.76748 0.34976,-0.20223 0.68626,-0.41772 1.00949,-0.63321 1.85821,-1.26809 3.53242,-2.81798 4.83366,-4.65795 0.16245,-0.20223 0.32324,-0.40446 0.47077,-0.61995 0.068,-0.0812 0.121,-0.17571 0.1757,-0.26854 0.51055,-0.75422 0.96972,-1.52171 1.36092,-2.33063 0.3365,-0.64648 0.63156,-1.29295 0.90175,-1.96595 0,-0.0116 0.01,-0.0249 0.0116,-0.0381 l 0.002,-0.002 c 0,-0.0133 0,-0.0133 0.0133,-0.0133 0,-0.0265 0,-0.0414 0.0133,-0.0547 0.21715,-0.55365 0.4227,-1.1189 0.59012,-1.68912 0.063,-0.20887 0.13095,-0.41773 0.19229,-0.62825 0.003,-0.007 0.003,-0.0116 0.005,-0.0182 0.003,-0.007 0.007,-0.0133 0.007,-0.0199 0.0448,-0.16411 0.11438,-0.31827 0.13427,-0.48569 0.0149,-0.0796 0.0414,-0.17405 0.068,-0.26853 0.0249,-0.1177 0.0547,-0.24036 0.0779,-0.35805 0.053,-0.20058 0.10112,-0.40115 0.15084,-0.61167 0.0398,-0.18897 0.068,-0.37628 0.10775,-0.56525 0.0414,-0.23539 0.0912,-0.46248 0.1293,-0.69786 0.01,-0.0547 0.0215,-0.10941 0.0331,-0.16411 0.0796,-0.47077 0.14753,-0.94319 0.20223,-1.41396 v -0.0265 c 0.26854,-2.07701 0.27019,-4.17889 0.0796,-6.28906"
         style="fill:#3ad8d4;fill-opacity:1;fill-rule:nonzero;stroke:none;stroke-width:1.65763"
         id="path652"
         clip-path="url(#clipPath1233)"
         transform="matrix(0.78385032,0,0,0.78385032,-8.1925322,1.9283809)"
         sodipodi:nodetypes="ccccccccccccccccccccccccccccccccccccccccccccccccccccccccccccccccccccccccccccccccccccccccccccccccsccccccccccccccccccccccccccccccccccccccccccccccccccccccccccccccccccccccccc"
         inkscape:export-filename="..\..\..\3 LANE ROPE OUTLINE.png"
         inkscape:export-xdpi="96"
         inkscape:export-ydpi="96" />
      <path
         d="m 836.34887,350.61932 c -4.49715,1.62779 -8.03123,0.14753 -19.10918,-1.71233 -5.54975,-0.93325 -7.11455,-0.67797 -9.04735,-0.0265 -2.27096,0.76583 -4.12419,3.44456 -5.67408,5.16518 -1.40732,1.55984 -3.07324,4.08275 -5.56798,3.05999 -7.70965,-3.15944 2.09359,-12.46373 6.29403,-13.64231 7.70135,-2.16321 16.84154,0.97966 24.66224,0.94651 2.80306,-0.0116 9.43524,-0.42767 11.76256,1.62945 2.6721,2.2693 -1.98916,4.15237 -3.32024,4.58004"
         style="fill:#3ad8d4;fill-opacity:1;fill-rule:nonzero;stroke:none;stroke-width:1.65763"
         id="path656"
         clip-path="url(#clipPath1263)"
         transform="matrix(0.78385032,0,0,0.78385032,-8.1925322,1.9283809)" />
      <path
         d="m 457.10428,352.02085 c -4.49715,1.62779 -8.03123,0.14753 -19.10918,-1.71233 -5.54975,-0.93325 -7.11455,-0.67797 -9.04569,-0.0265 -2.27262,0.76583 -4.12585,3.44456 -5.67574,5.16353 -1.68746,1.87478 -3.59871,4.30155 -6.32883,2.70028 -6.0603,-3.8225 2.66878,-12.18194 7.05488,-13.28095 7.70135,-2.16321 16.84154,0.97966 24.66224,0.94651 3.06994,0.16079 11.48242,-0.97634 12.56982,3.05833 0.0713,1.65929 -3.33018,2.86273 -4.1275,3.15116"
         style="fill:#3ad8d4;fill-opacity:1;fill-rule:nonzero;stroke:none;stroke-width:1.65763"
         id="path660"
         clip-path="url(#clipPath2013)"
         transform="matrix(0.78385032,0,0,0.78385032,-8.1925322,1.9283809)" />
      <path
         d="m 78.788304,357.44628 c -4.497155,1.62945 -8.024595,0.14753 -19.107521,-1.71068 -5.546435,-0.92827 -7.109582,-0.67299 -9.047353,-0.0265 -2.262668,0.76749 -4.120873,3.44788 -5.669101,5.17016 -1.415617,1.54988 -3.071591,4.08108 -5.563012,3.05667 -3.514179,-1.44048 -2.96053,-5.08893 -1.332736,-7.72788 6.909009,-11.16912 21.772993,-4.91819 32.277405,-4.96958 2.924062,0.10609 11.701222,-0.87855 12.576451,3.05667 0.06796,1.65598 -3.326866,2.8677 -4.134133,3.15116"
         style="fill:#3ad8d4;fill-opacity:1;fill-rule:nonzero;stroke:none;stroke-width:1.65763"
         id="path666"
         clip-path="url(#clipPath2028)"
         transform="matrix(0.78385032,0,0,0.78385032,-8.1925322,1.9283809)" />
    </g>
  </g>
</svg>
